<?xml version="1.0" encoding="utf-8"?>
<!-- Generator: Adobe Illustrator 16.0.4, SVG Export Plug-In . SVG Version: 6.00 Build 0)  -->
<!DOCTYPE svg PUBLIC "-//W3C//DTD SVG 1.1//EN" "http://www.w3.org/Graphics/SVG/1.1/DTD/svg11.dtd">
<svg version="1.1" id="EFCLogo" xmlns="http://www.w3.org/2000/svg" xmlns:xlink="http://www.w3.org/1999/xlink" x="0px" y="0px"
	 width="611.977px" height="64.673px" viewBox="0.023 363.663 611.977 64.673"
	 enable-background="new 0.023 363.663 611.977 64.673" xml:space="preserve">
<title>名称未設定-1</title>
<path fill="#FFFFFF" d="M440.861,401.76c-0.223,0.905-0.521,1.791-0.889,2.647c-0.553,1.388-1.277,2.698-2.164,3.899
	c-0.705,1.053-1.555,1.997-2.525,2.811l-1.111-1.213c1.113-0.994,2.066-2.153,2.83-3.437c0.721-1.141,1.293-2.37,1.697-3.658H425.32
	v-1.575h15.117L440.861,401.76z M433.142,404.872c0.037,2.095-0.086,4.188-0.363,6.266c-0.197,1.422-0.664,2.794-1.375,4.042
	c-0.639,1.145-1.529,2.126-2.607,2.869c-0.783,0.591-1.666,1.035-2.605,1.314l-0.525-1.477c1.826-0.644,3.332-1.97,4.203-3.697
	c0.895-1.961,1.342-4.093,1.312-6.245v-3.072H433.142L433.142,404.872z"/>
<path fill="#FFFFFF" d="M451.896,419.343h-2.021V408.51c-2.234,1.566-4.686,2.799-7.275,3.658l-0.605-1.536
	c3.031-0.989,5.83-2.585,8.227-4.688c1.83-1.692,3.355-3.689,4.506-5.901l1.84,0.707c-1.26,2.255-2.861,4.3-4.748,6.062
	L451.896,419.343z"/>
<path fill="#FFFFFF" d="M472.349,401.438c-0.006,2.729-0.365,5.446-1.07,8.084c-0.625,2.56-2.039,4.856-4.043,6.567
	c-2.189,1.775-4.854,2.872-7.658,3.152l-0.344-1.677c2.875-0.341,5.557-1.628,7.617-3.658c2.145-2.089,3.336-5.692,3.578-10.812
	H458.99v-1.657L472.349,401.438L472.349,401.438z"/>
<path fill="#FFFFFF" d="M486.05,404.993c-0.219,1.441-0.646,2.846-1.271,4.163c-0.637,1.341-1.514,2.554-2.586,3.578l-1.094-1.031
	c1.561-1.563,2.604-3.566,2.992-5.739h-10.227v-1.455h11.844L486.05,404.993z M479.806,407.52c0.027,1.748-0.053,3.496-0.242,5.234
	c-0.143,1.145-0.471,2.256-0.971,3.295c-0.438,0.921-1.062,1.74-1.838,2.404c-0.543,0.479-1.174,0.843-1.859,1.071l-0.709-1.313
	c1.217-0.556,2.197-1.521,2.771-2.729c0.674-1.552,1.031-3.222,1.051-4.911v-3.053L479.806,407.52L479.806,407.52z"/>
<path fill="#FFFFFF" d="M503.673,410.834h-14.975v-1.657h14.975V410.834z"/>
<path fill="#FFFFFF" d="M523.582,418.434l-1.9,0.666c-0.141-0.564-0.363-1.212-0.627-2.021c-4.852,0.774-9.744,1.281-14.65,1.516
	l-0.242-1.777h2.02c0.932-2.184,2.021-4.852,2.992-7.983s2.021-6.062,2.445-8.326l2.02,0.364c-0.707,2.524-1.576,5.335-2.627,8.407
	c-1.051,3.07-1.92,5.335-2.809,7.437l2.789-0.201c2.594-0.152,5.178-0.442,7.738-0.868c0-0.243-0.182-0.485-0.262-0.748
	c-0.668-1.8-1.598-3.9-2.789-6.347l1.477-0.829C520.945,411.154,522.425,414.739,523.582,418.434z"/>
<path fill="#FFFFFF" d="M533.726,410.147c0.008-1.116,0.918-2.018,2.033-2.011s2.018,0.917,2.01,2.033s-0.918,2.016-2.033,2.009
	c-0.523-0.003-1.027-0.21-1.402-0.577C533.943,411.219,533.724,410.694,533.726,410.147z"/>
<path fill="#FFFFFF" d="M555.007,400.163c-0.152,0.782-0.361,1.553-0.627,2.304h7.66v1.558c-0.039,0.745-0.127,1.487-0.262,2.223
	c-0.146,0.956-0.355,1.901-0.627,2.83c-0.271,0.907-0.594,1.799-0.971,2.667c-0.369,0.895-0.83,1.748-1.375,2.547
	c-0.521,0.793-1.141,1.519-1.84,2.162c-0.736,0.673-1.551,1.256-2.424,1.738c-0.959,0.513-1.969,0.926-3.012,1.232l-0.668-1.617
	c2.617-0.723,4.879-2.385,6.348-4.669c1.578-2.767,2.473-5.871,2.605-9.054h-6.062c-0.555,1.403-1.23,2.756-2.021,4.042
	c-0.711,1.179-1.58,2.253-2.586,3.193l-1.271-1.233c1.32-1.417,2.398-3.042,3.191-4.81c0.838-1.735,1.455-3.568,1.84-5.457
	L555.007,400.163z"/>
<path fill="#FFFFFF" d="M577.804,406.711c0,1.354-0.162,2.526-0.303,3.537c-0.139,1.062-0.418,2.103-0.828,3.092
	c-0.449,1.066-1.094,2.04-1.898,2.87c-0.887,0.938-1.971,1.662-3.176,2.122c-1.43,0.537-2.938,0.83-4.465,0.869l-0.223-1.637
	c2.367,0.062,4.666-0.801,6.406-2.405c1.666-1.92,2.561-4.392,2.506-6.933H564.75v-1.517L577.804,406.711L577.804,406.711z
	 M577.199,402.669h-11.844v-1.576h11.844V402.669z"/>
<path fill="#FFFFFF" d="M594.519,403.963c0.016,1.682-0.078,3.362-0.283,5.032c-0.15,1.18-0.408,2.343-0.768,3.476
	c-0.318,0.918-0.762,1.789-1.314,2.587c-0.557,0.781-1.24,1.465-2.021,2.021c-0.869,0.616-1.822,1.105-2.828,1.455
	c-1.176,0.394-2.389,0.664-3.619,0.809l-0.361-1.657c1.09-0.13,2.162-0.388,3.191-0.769c0.854-0.316,1.654-0.752,2.387-1.293
	c0.627-0.457,1.174-1.018,1.615-1.657c0.461-0.671,0.834-1.396,1.111-2.162c0.262-0.894,0.451-1.806,0.566-2.729
	c0.172-1.341,0.254-2.691,0.24-4.042v-0.788h-9.861v6.305h-2.021v-7.72h5.922V399.9h2.021v2.931h5.941L594.519,403.963z"/>
<path fill="#FFFFFF" d="M612,411.299l-0.93,1.558c-1.346-1.108-2.785-2.097-4.305-2.951c-1.441-0.84-2.949-1.563-4.508-2.162v11.682
	h-2.02V399.8h2.02v6.185C605.728,407.314,609.003,409.102,612,411.299z M608.16,404.084l-1.293,0.586
	c-0.48-1.084-1.025-2.137-1.639-3.152l1.215-0.546C607.082,401.971,607.656,403.011,608.16,404.084z M610.929,403.64l-1.293,0.525
	c-0.453-1.08-0.994-2.121-1.617-3.112l1.191-0.565c0.648,1.037,1.223,2.116,1.719,3.233V403.64z"/>
<g id="_4cec1ee3-3942-45bf-9c5c-31653895e146">
	<path fill="#FFFFFF" d="M70.735,425.77h-3.84c-1.484-0.001-2.687-1.204-2.687-2.688c0-1.483,1.203-2.687,2.687-2.688h3.84
		c3.952,0,7.745-1.562,10.55-4.345c5.789-5.798,5.781-15.189-0.017-20.979c-2.112-2.109-4.811-3.531-7.744-4.082
		c-1.258-0.146-2.201-1.221-2.183-2.486v-0.303C71.274,377.574,62.625,369.006,52,369.04l0,0
		c-9.217-0.005-17.154,6.502-18.957,15.542c-0.111,0.72-0.522,1.359-1.132,1.758c-0.605,0.368-1.321,0.511-2.021,0.404
		c-5.678-1.121-11.204,2.523-12.409,8.185c0,0.404,0,0.829-0.202,1.233c-0.12,1.282-1.108,2.312-2.385,2.484
		c-6.006,0.813-10.216,6.343-9.402,12.349c0.727,5.367,5.26,9.4,10.675,9.499h7.66c1.479,0.021,2.676,1.21,2.708,2.688
		c0.011,1.417-1.128,2.575-2.546,2.587c-0.021,0-0.041,0-0.061,0h-7.66c-9.007-0.034-16.281-7.365-16.245-16.374
		c0.029-7.4,5.04-13.855,12.203-15.72c1.641-7.54,8.458-12.813,16.168-12.51c3.13-10.414,12.731-17.533,23.605-17.502l0,0
		c12.876-0.041,23.611,9.84,24.636,22.676c8.47,2.585,14.27,10.384,14.309,19.239c-0.018,5.344-2.206,10.45-6.063,14.146
		C81.184,423.58,76.076,425.762,70.735,425.77z"/>
	<path fill="#FFFFFF" d="M16.794,423.081"/>
</g>
<g id="d2a8a93f-52fd-47eb-a7ed-d24ff965bb28">
	<path fill="#FFFFFF" d="M37.187,417.483c-3.569,0.226-7.078-1.008-9.721-3.416c-2.404-2.565-3.64-6.011-3.416-9.52
		c-0.171-3.54,1.006-7.015,3.294-9.721c2.274-2.428,5.487-3.754,8.812-3.638c2.897-0.143,5.718,0.952,7.761,3.011
		c1.99,2.324,2.991,5.334,2.789,8.388v2.162H28.072c-0.157,2.56,0.741,5.072,2.486,6.952c1.862,1.682,4.328,2.535,6.831,2.364
		c3.139-0.096,6.175-1.139,8.71-2.99h0.202v4.243C43.407,416.552,40.325,417.283,37.187,417.483z M27.971,401.861h14.814
		c-0.121-4.973-2.385-7.458-6.952-7.458c-2.021-0.076-3.99,0.65-5.477,2.021C28.851,397.834,27.989,399.799,27.971,401.861z"/>
	<path fill="#FFFFFF" d="M70.412,415.422c-2.44,1.243-5.125,1.935-7.862,2.021c-3.355,0.21-6.639-1.034-9.014-3.415
		c-2.29-2.662-3.444-6.116-3.213-9.62c-0.161-3.519,1.024-6.965,3.314-9.641c2.352-2.421,5.646-3.69,9.014-3.476
		c2.74,0.069,5.429,0.76,7.862,2.021v4.346h-0.202c-2.189-1.822-4.915-2.88-7.761-3.012c-2.318-0.154-4.571,0.807-6.063,2.587
		c-1.579,2.075-2.354,4.652-2.183,7.256c-0.173,2.564,0.604,5.104,2.183,7.134c1.533,1.715,3.768,2.631,6.063,2.486
		c2.839-0.147,5.558-1.195,7.761-2.991h0.202L70.412,415.422z"/>
</g>
<path fill="#FFFFFF" d="M127.869,419.747h-20.21v-31.043h20.21v3.254h-16.39v9.034h15.966v3.354h-15.966v12.065h16.39V419.747z"/>
<path fill="#FFFFFF" d="M153.111,396.465l-13.662,31.871h-3.86l4.325-9.6l-9.377-22.231h4.042l7.316,17.686l7.438-17.726H153.111z"
	/>
<path fill="#FFFFFF" d="M167.743,420.252c-3.304,0.213-6.554-0.917-9.014-3.133c-2.215-2.402-3.341-5.612-3.112-8.872
	c-0.177-3.303,0.915-6.549,3.052-9.074c2.077-2.246,5.027-3.478,8.084-3.375c2.673-0.155,5.282,0.854,7.154,2.77
	c1.822,2.198,2.733,5.013,2.546,7.861v2.021h-17.178c-0.153,2.377,0.672,4.714,2.284,6.468c1.706,1.566,3.973,2.375,6.285,2.243
	c2.918-0.052,5.747-1.021,8.084-2.77h0.162v3.841C173.456,419.414,170.626,420.099,167.743,420.252z M159.275,405.701h13.662
	c-0.121-4.622-2.243-6.939-6.366-6.952c-1.87-0.076-3.694,0.593-5.072,1.858C160.152,401.972,159.36,403.786,159.275,405.701z"/>
<path fill="#FFFFFF" d="M201.534,391.958H185.77v9.276h13.985v3.335H185.77v15.097h-3.88v-30.962h19.604L201.534,391.958z"/>
<path fill="#FFFFFF" d="M219.784,419.747v-2.607c-1.44,1.146-3.059,2.046-4.79,2.668c-1.229,0.387-2.511,0.584-3.799,0.586
	c-1.929,0.067-3.801-0.663-5.174-2.021c-1.362-1.395-2.093-3.286-2.021-5.234c-0.118-2.416,1.041-4.718,3.052-6.062
	c2.035-1.349,6.292-2.156,12.772-2.425v-0.708c0.105-1.411-0.473-2.787-1.556-3.698c-1.526-0.91-3.302-1.313-5.073-1.152
	c-2.456,0.07-4.874,0.627-7.114,1.639h-0.162v-3.761c2.443-0.662,4.966-0.988,7.498-0.97c2.669-0.214,5.333,0.461,7.579,1.92
	c1.717,1.524,2.603,3.777,2.385,6.063v15.925L219.784,419.747z M219.784,414.209v-6.771c-5.133,0.242-8.428,0.809-9.883,1.697
	c-1.359,0.74-2.199,2.171-2.183,3.72c0,2.788,1.677,4.184,5.052,4.184c2.596-0.114,5.074-1.12,7.013-2.85L219.784,414.209
	L219.784,414.209z"/>
<path fill="#FFFFFF" d="M230.212,419.747v-23.282h3.618v3.577c2.202-2.088,5.058-3.352,8.084-3.577
	c0.873-0.002,1.745,0.065,2.607,0.202v3.8h-0.141c-1.137-0.283-2.305-0.426-3.477-0.425c-2.636,0.119-5.143,1.173-7.073,2.971
	v16.734H230.212z"/>
<path fill="#FFFFFF" d="M277.646,419.747v-13.036c0.108-1.701-0.069-3.409-0.525-5.052c-0.302-0.78-0.867-1.432-1.597-1.84
	c-0.833-0.417-1.757-0.619-2.688-0.586c-2.507,0.269-4.854,1.362-6.669,3.111c0.099,0.906,0.146,1.817,0.142,2.729v14.673h-3.577
	v-13.036c0.103-1.721-0.075-3.448-0.525-5.112c-0.302-0.764-0.859-1.398-1.577-1.799c-0.835-0.407-1.759-0.602-2.688-0.565
	c-2.475,0.209-4.802,1.266-6.588,2.99v17.522h-3.618v-23.282h3.618v2.811c2.127-2.04,4.902-3.271,7.841-3.478
	c2.745-0.258,5.342,1.286,6.427,3.819c2.298-2.247,5.322-3.603,8.529-3.819c4.81,0,7.235,2.931,7.235,8.791v15.158H277.646
	L277.646,419.747z"/>
<path fill="#FFFFFF" d="M315.721,420.252c-4.068,0.229-8.039-1.295-10.913-4.184c-2.802-3.294-4.215-7.547-3.941-11.863
	c-0.231-4.309,1.218-8.54,4.042-11.802c2.833-2.937,6.797-4.505,10.874-4.306c3.598,0.085,7.12,1.042,10.268,2.789v4.507h-0.305
	c-2.774-2.513-6.361-3.946-10.104-4.042c-2.98-0.121-5.854,1.14-7.781,3.416c-2.041,2.716-3.051,6.068-2.85,9.458
	c-0.203,3.389,0.831,6.735,2.911,9.418c1.934,2.254,4.793,3.497,7.761,3.375c1.649,0.004,3.29-0.271,4.851-0.809
	c1.91-0.757,3.664-1.859,5.174-3.254h0.303v4.527c-1.967,0.996-4.031,1.781-6.163,2.345
	C318.49,420.119,317.106,420.262,315.721,420.252z"/>
<path fill="#FFFFFF" d="M334.496,419.747h-3.638v-32.336h3.638V419.747z"/>
<path fill="#FFFFFF" d="M350.563,420.394c-2.981,0.136-5.867-1.073-7.862-3.294c-2.033-2.532-3.058-5.729-2.869-8.974
	c-0.178-3.251,0.853-6.454,2.891-8.993c4.182-4.325,11.078-4.44,15.402-0.26c0.088,0.085,0.174,0.172,0.26,0.26
	c2.057,2.53,3.094,5.737,2.91,8.993c0.186,3.253-0.844,6.458-2.891,8.993C356.41,419.326,353.535,420.527,350.563,420.394z
	 M350.563,398.89c-2.015-0.114-3.954,0.779-5.174,2.386c-1.341,2.022-1.979,4.431-1.819,6.852c-0.156,2.402,0.482,4.788,1.819,6.791
	c2.446,2.857,6.745,3.19,9.603,0.744c0.268-0.229,0.516-0.479,0.745-0.744c1.318-2.01,1.95-4.393,1.798-6.791
	C357.535,402.062,355.21,398.89,350.563,398.89z"/>
<path fill="#FFFFFF" d="M385.667,419.747h-3.697v-2.81c-2.213,2.057-5.07,3.277-8.084,3.455c-2.076,0.14-4.105-0.653-5.538-2.161
	c-1.388-1.859-2.068-4.152-1.921-6.469v-15.299h3.619v13.076c-0.219,2.063,0.205,4.146,1.211,5.962
	c1.017,1.061,2.461,1.596,3.922,1.455c2.537-0.185,4.934-1.233,6.791-2.971v-17.522h3.638L385.667,419.747z"/>
<path fill="#FFFFFF" d="M407.697,419.747v-2.567c-2.117,1.931-4.84,3.065-7.699,3.214c-2.594,0.072-5.056-1.146-6.568-3.254
	c-1.75-2.601-2.602-5.701-2.426-8.832c-0.146-3.26,0.896-6.463,2.931-9.014c1.759-2.222,4.442-3.511,7.274-3.496
	c2.279,0.081,4.506,0.712,6.488,1.839V387.31h3.639v32.438L407.697,419.747L407.697,419.747z M407.697,414.229v-13.782
	c-1.775-0.877-3.721-1.359-5.699-1.415c-2.062-0.099-4.045,0.796-5.336,2.404c-1.423,1.954-2.136,4.337-2.021,6.75
	c0,5.861,2.021,8.771,6.284,8.771c2.523-0.045,4.939-1.033,6.771-2.77V414.229z"/>
</svg>
