<?xml version="1.0" encoding="utf-8"?>
<!-- Generator: Adobe Illustrator 16.0.4, SVG Export Plug-In . SVG Version: 6.00 Build 0)  -->
<!DOCTYPE svg PUBLIC "-//W3C//DTD SVG 1.1//EN" "http://www.w3.org/Graphics/SVG/1.1/DTD/svg11.dtd">
<svg version="1.1" id="EFCLogo" xmlns="http://www.w3.org/2000/svg" xmlns:xlink="http://www.w3.org/1999/xlink" x="0px" y="0px"
	 width="611.976px" height="64.672px" viewBox="0.024 363.664 611.976 64.672"
	 enable-background="new 0.024 363.664 611.976 64.672" xml:space="preserve">
<title>名称未設定-1</title>
<path fill="#01913C" d="M440.861,401.76c-0.223,0.905-0.521,1.791-0.889,2.647c-0.552,1.388-1.278,2.698-2.163,3.9
	c-0.705,1.052-1.556,1.997-2.526,2.81l-1.111-1.213c1.112-0.994,2.066-2.153,2.829-3.436c0.722-1.141,1.293-2.37,1.698-3.658H425.32
	v-1.576h15.117L440.861,401.76z M433.142,404.872c0.037,2.095-0.085,4.189-0.364,6.266c-0.197,1.422-0.663,2.794-1.374,4.042
	c-0.638,1.144-1.529,2.126-2.607,2.869c-0.783,0.591-1.666,1.035-2.606,1.314l-0.525-1.476c1.826-0.644,3.332-1.97,4.203-3.698
	c0.894-1.96,1.342-4.092,1.313-6.245v-3.072H433.142z"/>
<path fill="#01913C" d="M451.896,419.343h-2.021V408.51c-2.234,1.566-4.686,2.799-7.275,3.658l-0.606-1.536
	c3.031-0.989,5.829-2.585,8.226-4.688c1.831-1.692,3.355-3.689,4.507-5.901l1.839,0.707c-1.26,2.255-2.862,4.3-4.749,6.063
	L451.896,419.343z"/>
<path fill="#01913C" d="M472.349,401.437c-0.005,2.729-0.365,5.447-1.071,8.084c-0.624,2.56-2.038,4.857-4.042,6.568
	c-2.19,1.775-4.854,2.872-7.659,3.152l-0.344-1.677c2.875-0.34,5.557-1.627,7.619-3.658c2.143-2.089,3.335-5.692,3.577-10.812
	H458.99v-1.657H472.349z"/>
<path fill="#01913C" d="M486.051,404.993c-0.219,1.442-0.647,2.846-1.272,4.163c-0.637,1.341-1.514,2.554-2.587,3.578l-1.092-1.031
	c1.559-1.563,2.603-3.566,2.991-5.739h-10.227v-1.455h11.844L486.051,404.993z M479.807,407.52c0.027,1.748-0.054,3.496-0.243,5.234
	c-0.142,1.144-0.47,2.256-0.97,3.295c-0.438,0.921-1.064,1.74-1.839,2.404c-0.542,0.479-1.174,0.843-1.859,1.071l-0.708-1.313
	c1.216-0.556,2.196-1.521,2.77-2.729c0.674-1.551,1.031-3.221,1.051-4.911v-3.052H479.807z"/>
<path fill="#01913C" d="M503.674,410.834h-14.976v-1.657h14.976V410.834z"/>
<path fill="#01913C" d="M523.581,418.434l-1.899,0.666c-0.142-0.565-0.364-1.212-0.627-2.021c-4.853,0.775-9.744,1.281-14.652,1.516
	l-0.242-1.778h2.021c0.93-2.183,2.021-4.851,2.991-7.983c0.971-3.132,2.021-6.062,2.445-8.326l2.021,0.364
	c-0.707,2.525-1.576,5.335-2.627,8.407c-1.052,3.071-1.92,5.335-2.81,7.437l2.789-0.201c2.594-0.153,5.178-0.443,7.74-0.869
	c0-0.243-0.182-0.485-0.263-0.748c-0.667-1.799-1.597-3.9-2.789-6.346l1.476-0.829C520.944,411.154,522.426,414.739,523.581,418.434
	z"/>
<path fill="#01913C" d="M533.727,410.147c0.007-1.116,0.917-2.017,2.033-2.01c1.115,0.007,2.016,0.917,2.009,2.033
	s-0.917,2.016-2.033,2.009c-0.524-0.003-1.027-0.21-1.402-0.577C533.942,411.219,533.724,410.694,533.727,410.147z"/>
<path fill="#01913C" d="M555.008,400.163c-0.153,0.782-0.362,1.553-0.627,2.304h7.66v1.557c-0.04,0.746-0.128,1.488-0.263,2.223
	c-0.146,0.956-0.354,1.901-0.627,2.83c-0.27,0.907-0.593,1.799-0.97,2.667c-0.369,0.895-0.83,1.748-1.374,2.547
	c-0.523,0.793-1.141,1.519-1.84,2.162c-0.737,0.673-1.552,1.256-2.425,1.738c-0.959,0.513-1.968,0.926-3.012,1.233l-0.667-1.617
	c2.618-0.723,4.878-2.385,6.347-4.669c1.578-2.767,2.473-5.871,2.606-9.054h-6.062c-0.555,1.403-1.23,2.756-2.021,4.042
	c-0.711,1.179-1.582,2.253-2.587,3.193l-1.272-1.233c1.321-1.417,2.399-3.042,3.192-4.81c0.838-1.735,1.456-3.568,1.84-5.457
	L555.008,400.163z"/>
<path fill="#01913C" d="M577.805,406.711c0,1.354-0.162,2.526-0.303,3.537c-0.139,1.062-0.418,2.103-0.829,3.092
	c-0.449,1.066-1.094,2.04-1.899,2.87c-0.886,0.937-1.97,1.662-3.174,2.122c-1.43,0.537-2.939,0.83-4.466,0.869l-0.223-1.637
	c2.367,0.062,4.666-0.8,6.407-2.405c1.666-1.92,2.56-4.391,2.506-6.932h-11.075v-1.517H577.805z M577.198,402.669h-11.843v-1.576
	h11.843V402.669z"/>
<path fill="#01913C" d="M594.519,403.963c0.016,1.682-0.079,3.362-0.283,5.032c-0.151,1.18-0.408,2.343-0.768,3.476
	c-0.319,0.918-0.761,1.789-1.314,2.587c-0.557,0.781-1.24,1.464-2.021,2.021c-0.87,0.616-1.822,1.106-2.829,1.455
	c-1.175,0.394-2.388,0.664-3.618,0.809l-0.363-1.657c1.091-0.13,2.162-0.388,3.193-0.769c0.852-0.316,1.654-0.752,2.385-1.293
	c0.628-0.457,1.175-1.018,1.616-1.657c0.461-0.671,0.834-1.397,1.111-2.162c0.262-0.894,0.451-1.806,0.566-2.729
	c0.173-1.341,0.254-2.691,0.242-4.042v-0.788h-9.862v6.305h-2.021v-7.72h5.922V399.9h2.021v2.931h5.941L594.519,403.963z"/>
<path fill="#01913C" d="M612,411.299l-0.93,1.557c-1.346-1.108-2.786-2.096-4.305-2.951c-1.442-0.84-2.949-1.563-4.507-2.162v11.682
	h-2.021V399.8h2.021v6.184C605.728,407.314,609.004,409.102,612,411.299z M608.16,404.084l-1.294,0.586
	c-0.479-1.084-1.025-2.137-1.637-3.152l1.213-0.546C607.081,401.971,607.655,403.011,608.16,404.084z M610.929,403.64l-1.293,0.525
	c-0.452-1.08-0.993-2.121-1.617-3.112l1.192-0.566c0.647,1.037,1.222,2.117,1.718,3.234V403.64z"/>
<g id="_4cec1ee3-3942-45bf-9c5c-31653895e146">
	<path fill="#01913C" d="M70.735,425.77h-3.84c-1.484-0.001-2.687-1.205-2.687-2.689c0-1.483,1.203-2.686,2.687-2.687h3.84
		c3.952,0,7.745-1.562,10.55-4.345c5.789-5.798,5.781-15.19-0.017-20.979c-2.112-2.109-4.811-3.531-7.744-4.082
		c-1.258-0.145-2.201-1.22-2.183-2.486v-0.303C71.274,377.574,62.625,369.006,52,369.04l0,0
		c-9.217-0.005-17.154,6.502-18.957,15.542c-0.111,0.72-0.522,1.359-1.132,1.758c-0.605,0.368-1.321,0.511-2.021,0.404
		c-5.678-1.121-11.204,2.524-12.409,8.185c0,0.404,0,0.829-0.202,1.233c-0.12,1.282-1.108,2.312-2.385,2.485
		c-6.006,0.813-10.216,6.342-9.402,12.348c0.727,5.367,5.26,9.401,10.675,9.499h7.66c1.479,0.021,2.676,1.21,2.708,2.688
		c0.011,1.417-1.128,2.575-2.546,2.587c-0.021,0-0.041,0-0.061,0h-7.66c-9.007-0.035-16.281-7.366-16.245-16.374
		c0.029-7.401,5.04-13.856,12.203-15.72c1.641-7.54,8.458-12.814,16.168-12.51c3.13-10.414,12.731-17.533,23.605-17.502l0,0
		c12.876-0.041,23.611,9.84,24.636,22.676c8.47,2.585,14.27,10.384,14.309,19.239c-0.018,5.344-2.206,10.45-6.063,14.147
		C81.184,423.58,76.076,425.762,70.735,425.77z"/>
	<path fill="#01913C" d="M16.794,423.081"/>
</g>
<g id="d2a8a93f-52fd-47eb-a7ed-d24ff965bb28">
	<path fill="#01913C" d="M37.187,417.483c-3.569,0.226-7.078-1.007-9.721-3.416c-2.404-2.565-3.64-6.01-3.416-9.519
		c-0.171-3.54,1.006-7.015,3.294-9.721c2.274-2.428,5.487-3.754,8.812-3.638c2.897-0.142,5.718,0.953,7.761,3.011
		c1.99,2.324,2.991,5.334,2.789,8.388v2.162H28.072c-0.157,2.56,0.741,5.072,2.486,6.952c1.862,1.682,4.328,2.535,6.831,2.364
		c3.139-0.095,6.175-1.138,8.71-2.99h0.202v4.243C43.407,416.552,40.325,417.283,37.187,417.483z M27.971,401.861h14.814
		c-0.121-4.972-2.385-7.458-6.952-7.458c-2.021-0.076-3.99,0.651-5.477,2.021C28.851,397.834,27.989,399.799,27.971,401.861z"/>
	<path fill="#01913C" d="M70.412,415.422c-2.44,1.243-5.125,1.934-7.862,2.021c-3.355,0.21-6.639-1.034-9.014-3.415
		c-2.29-2.662-3.444-6.116-3.213-9.62c-0.161-3.518,1.024-6.965,3.314-9.64c2.352-2.421,5.646-3.691,9.014-3.476
		c2.74,0.069,5.429,0.76,7.862,2.021v4.345h-0.202c-2.189-1.822-4.915-2.88-7.761-3.011c-2.318-0.155-4.571,0.806-6.063,2.586
		c-1.579,2.076-2.354,4.653-2.183,7.256c-0.173,2.565,0.604,5.104,2.183,7.134c1.533,1.715,3.768,2.631,6.063,2.486
		c2.839-0.147,5.558-1.195,7.761-2.991h0.202L70.412,415.422z"/>
</g>
<path fill="#01913C" d="M127.869,419.747h-20.21v-31.043h20.21v3.254h-16.39v9.034h15.966v3.354h-15.966v12.065h16.39V419.747z"/>
<path fill="#01913C" d="M153.111,396.465l-13.662,31.871h-3.86l4.325-9.6l-9.377-22.231h4.042l7.316,17.685l7.438-17.725H153.111z"
	/>
<path fill="#01913C" d="M167.743,420.252c-3.304,0.213-6.554-0.917-9.014-3.133c-2.215-2.402-3.341-5.612-3.112-8.872
	c-0.177-3.303,0.915-6.549,3.052-9.074c2.077-2.246,5.027-3.478,8.084-3.375c2.673-0.155,5.282,0.854,7.154,2.769
	c1.822,2.199,2.733,5.013,2.546,7.862v2.021h-17.178c-0.153,2.377,0.672,4.714,2.284,6.468c1.706,1.566,3.973,2.375,6.285,2.243
	c2.918-0.052,5.747-1.021,8.084-2.769h0.162v3.84C173.456,419.414,170.626,420.099,167.743,420.252z M159.275,405.701h13.662
	c-0.121-4.622-2.243-6.939-6.366-6.952c-1.87-0.076-3.694,0.593-5.072,1.858C160.152,401.972,159.36,403.786,159.275,405.701z"/>
<path fill="#01913C" d="M201.534,391.958h-15.764v9.276h13.985v3.335h-13.985v15.097h-3.88v-30.962h19.604L201.534,391.958z"/>
<path fill="#01913C" d="M219.784,419.747v-2.607c-1.44,1.145-3.059,2.046-4.79,2.668c-1.229,0.386-2.511,0.584-3.799,0.586
	c-1.929,0.067-3.801-0.664-5.174-2.021c-1.362-1.394-2.093-3.286-2.021-5.234c-0.118-2.416,1.041-4.718,3.052-6.062
	c2.035-1.348,6.292-2.156,12.772-2.425v-0.708c0.105-1.411-0.473-2.787-1.556-3.698c-1.526-0.91-3.302-1.313-5.073-1.152
	c-2.456,0.07-4.874,0.627-7.114,1.638h-0.162v-3.76c2.443-0.662,4.966-0.989,7.498-0.97c2.669-0.214,5.333,0.461,7.579,1.92
	c1.717,1.524,2.603,3.777,2.385,6.063v15.925L219.784,419.747z M219.784,414.209v-6.771c-5.133,0.243-8.428,0.809-9.883,1.698
	c-1.359,0.74-2.199,2.171-2.183,3.719c0,2.789,1.677,4.184,5.052,4.184c2.596-0.114,5.074-1.12,7.013-2.85V414.209z"/>
<path fill="#01913C" d="M230.212,419.747v-23.282h3.618v3.577c2.202-2.088,5.058-3.352,8.084-3.577
	c0.873-0.002,1.745,0.065,2.607,0.202v3.8h-0.141c-1.137-0.283-2.305-0.426-3.477-0.425c-2.636,0.119-5.143,1.173-7.073,2.971
	v16.734H230.212z"/>
<path fill="#01913C" d="M277.646,419.747v-13.036c0.108-1.701-0.069-3.409-0.525-5.052c-0.302-0.78-0.867-1.431-1.597-1.84
	c-0.833-0.417-1.757-0.619-2.688-0.586c-2.507,0.269-4.854,1.363-6.669,3.112c0.099,0.906,0.146,1.817,0.142,2.729v14.673h-3.577
	v-13.036c0.103-1.721-0.075-3.448-0.525-5.112c-0.302-0.764-0.859-1.399-1.577-1.799c-0.835-0.407-1.759-0.602-2.688-0.566
	c-2.475,0.209-4.802,1.266-6.588,2.991v17.522h-3.618v-23.282h3.618v2.81c2.127-2.04,4.902-3.27,7.841-3.477
	c2.745-0.258,5.342,1.286,6.427,3.819c2.298-2.247,5.322-3.602,8.529-3.819c4.81,0,7.235,2.931,7.235,8.791v15.158H277.646z"/>
<path fill="#01913C" d="M315.721,420.252c-4.068,0.228-8.039-1.295-10.913-4.184c-2.802-3.294-4.215-7.547-3.941-11.863
	c-0.231-4.309,1.218-8.54,4.042-11.802c2.833-2.936,6.797-4.505,10.873-4.305c3.598,0.085,7.121,1.042,10.268,2.789v4.507h-0.304
	c-2.775-2.513-6.361-3.947-10.104-4.042c-2.981-0.122-5.853,1.139-7.781,3.416c-2.041,2.715-3.051,6.068-2.85,9.458
	c-0.203,3.388,0.831,6.735,2.91,9.418c1.934,2.253,4.794,3.497,7.761,3.375c1.65,0.003,3.29-0.271,4.851-0.809
	c1.91-0.757,3.664-1.859,5.174-3.254h0.303v4.527c-1.967,0.996-4.032,1.782-6.164,2.345
	C318.489,420.119,317.106,420.262,315.721,420.252z"/>
<path fill="#01913C" d="M334.496,419.747h-3.638v-32.336h3.638V419.747z"/>
<path fill="#01913C" d="M350.563,420.394c-2.982,0.135-5.867-1.074-7.862-3.294c-2.034-2.533-3.058-5.73-2.869-8.974
	c-0.178-3.251,0.852-6.454,2.89-8.993c4.182-4.325,11.078-4.441,15.403-0.26c0.088,0.085,0.174,0.172,0.26,0.26
	c2.056,2.53,3.093,5.737,2.91,8.993c0.185,3.253-0.845,6.458-2.891,8.993C356.41,419.326,353.534,420.527,350.563,420.394z
	 M350.563,398.89c-2.015-0.115-3.954,0.779-5.174,2.385c-1.341,2.023-1.979,4.431-1.819,6.852c-0.156,2.402,0.483,4.788,1.819,6.791
	c2.446,2.857,6.745,3.19,9.603,0.744c0.268-0.229,0.516-0.478,0.745-0.744c1.318-2.01,1.95-4.393,1.798-6.791
	C357.535,402.063,355.211,398.89,350.563,398.89z"/>
<path fill="#01913C" d="M385.668,419.747h-3.698v-2.81c-2.212,2.057-5.07,3.278-8.084,3.456c-2.076,0.139-4.105-0.654-5.538-2.162
	c-1.388-1.859-2.068-4.152-1.92-6.468v-15.299h3.618v13.076c-0.218,2.064,0.205,4.146,1.212,5.962
	c1.016,1.06,2.46,1.596,3.921,1.455c2.537-0.185,4.934-1.233,6.791-2.971v-17.522h3.638L385.668,419.747z"/>
<path fill="#01913C" d="M407.697,419.747v-2.567c-2.118,1.93-4.84,3.065-7.7,3.214c-2.594,0.072-5.055-1.146-6.568-3.254
	c-1.75-2.601-2.602-5.702-2.426-8.832c-0.146-3.26,0.896-6.463,2.931-9.014c1.759-2.222,4.442-3.511,7.275-3.496
	c2.279,0.081,4.505,0.712,6.488,1.839V387.31h3.638v32.438H407.697z M407.697,414.229v-13.783c-1.776-0.877-3.72-1.359-5.699-1.415
	c-2.062-0.098-4.045,0.796-5.336,2.405c-1.423,1.954-2.136,4.336-2.021,6.75c0,5.861,2.021,8.771,6.285,8.771
	c2.523-0.045,4.938-1.033,6.771-2.769V414.229z"/>
</svg>
